<svg width="133" height="24" viewBox="0 0 133 24" fill="none" xmlns="http://www.w3.org/2000/svg">
<path d="M0 23.9036L9.1629 0.353413L18.3258 23.9036H14.9855L14.3113 22.0402H4.04516L3.34032 23.9036H0ZM5.14839 19.0522H13.1774L9.1629 8.25703L5.14839 19.0522ZM26.4468 0.385541V20.5944H35.6097V23.9679H23.1677V0.385541H26.4468ZM52.3726 0.385541H55.5903V16.1285C55.5903 17.2209 55.3911 18.2383 54.9927 19.1807C54.5944 20.1232 54.0479 20.9424 53.3532 21.6386C52.6586 22.3347 51.8516 22.8862 50.9323 23.2932C50.0129 23.7001 49.0221 23.9036 47.9597 23.9036C46.9177 23.9036 45.9422 23.7001 45.0331 23.2932C44.1239 22.8862 43.3272 22.3347 42.6427 21.6386C41.9583 20.9424 41.422 20.1232 41.0339 19.1807C40.6457 18.2383 40.4516 17.2209 40.4516 16.1285V0.385541H43.6694V16.1285C43.6694 16.7497 43.7817 17.3333 44.0065 17.8795C44.2312 18.4257 44.5376 18.9076 44.9258 19.3253C45.314 19.743 45.7737 20.0696 46.3048 20.3052C46.836 20.5408 47.3979 20.6586 47.9903 20.6586C48.6032 20.6586 49.1753 20.5408 49.7065 20.3052C50.2376 20.0696 50.7024 19.743 51.1008 19.3253C51.4992 18.9076 51.8108 18.4257 52.0355 17.8795C52.2602 17.3333 52.3726 16.7497 52.3726 16.1285V0.385541ZM71.679 0.417669H75.1726V0.449796L69.5339 12.1767L75.1726 23.9679V24H71.7097L67.7871 15.8394L63.8952 24H60.4323V23.9679L66.071 12.1767L60.4323 0.449796V0.417669H63.9258L67.7871 8.54619L71.679 0.417669ZM80.0145 23.9357V0.385541H83.2935V23.9357H80.0145ZM99.321 0.289158C100.874 0.289158 102.334 0.599724 103.703 1.22088C105.072 1.84203 106.262 2.68808 107.273 3.75904C108.285 4.82999 109.081 6.08835 109.664 7.53414C110.246 8.97993 110.537 10.5274 110.537 12.1767C110.537 13.8046 110.246 15.336 109.664 16.7711C109.081 18.2062 108.285 19.4592 107.273 20.5301C106.262 21.6011 105.072 22.4471 103.703 23.0683C102.334 23.6894 100.874 24 99.321 24C97.7683 24 96.3127 23.6894 94.954 23.0683C93.5954 22.4471 92.4105 21.6011 91.3992 20.5301C90.3879 19.4592 89.5911 18.2062 89.0089 16.7711C88.4266 15.336 88.1355 13.8046 88.1355 12.1767C88.1355 10.5274 88.4266 8.97993 89.0089 7.53414C89.5911 6.08835 90.3879 4.82999 91.3992 3.75904C92.4105 2.68808 93.5954 1.84203 94.954 1.22088C96.3127 0.599724 97.7683 0.289158 99.321 0.289158ZM99.321 20.7229C100.383 20.7229 101.39 20.498 102.34 20.0482C103.29 19.5984 104.117 18.988 104.822 18.2169C105.527 17.4458 106.083 16.5408 106.492 15.502C106.901 14.4632 107.105 13.3548 107.105 12.1767C107.105 10.9987 106.901 9.88487 106.492 8.83534C106.083 7.7858 105.527 6.87015 104.822 6.08835C104.117 5.30655 103.29 4.69076 102.34 4.24096C101.39 3.79116 100.383 3.56626 99.321 3.56626C98.2586 3.56626 97.2575 3.79116 96.3177 4.24096C95.378 4.69076 94.5556 5.30655 93.8508 6.08835C93.146 6.87015 92.5892 7.7858 92.1806 8.83534C91.772 9.88487 91.5677 10.9987 91.5677 12.1767C91.5677 13.3548 91.772 14.4632 92.1806 15.502C92.5892 16.5408 93.146 17.4458 93.8508 18.2169C94.5556 18.988 95.378 19.5984 96.3177 20.0482C97.2575 20.498 98.2586 20.7229 99.321 20.7229ZM118.474 9.1245V24H115.379V0L129.905 18.2169V0.417669H133V24H129.997L118.474 9.1245Z" fill="white"/>
</svg>
