<svg width="24" height="18" viewBox="0 0 24 18" fill="none" xmlns="http://www.w3.org/2000/svg">
<path d="M4.5 16.875H13.5C13.8977 16.8747 14.279 16.7561 14.5602 16.5452C14.8414 16.3343 14.9996 16.0483 15 15.75V14.0625H13.5V15.75H4.5V2.25H13.5V3.9375H15V2.25C14.9996 1.95172 14.8414 1.66575 14.5602 1.45483C14.279 1.24392 13.8977 1.1253 13.5 1.125H4.5C4.1023 1.1253 3.721 1.24392 3.43978 1.45483C3.15856 1.66575 3.0004 1.95172 3 2.25V15.75C3.0004 16.0483 3.15856 16.3343 3.43978 16.5452C3.721 16.7561 4.1023 16.8747 4.5 16.875Z" fill="white"/>
<path d="M15.4395 11.5796L18.129 9.5625H7.5V8.4375H18.129L15.4395 6.42037L16.5 5.625L21 9L16.5 12.375L15.4395 11.5796Z" fill="white"/>
</svg>
